Title: Troubleshooter (2010)
Original Title: 해결사 (Hae-gyeol-sa)
Country: South Korea
Language: Korean
Film Genre: Action | Crime
Subtitles: English(srt/idx,sub), Korean(smi/idx,sub)
Director: Kwon Hyeok-Jae
Cast: Sol Kyung-Gu, Lee Jeong-Jin, Oh Dal-Su, Song Sae-Byeok, Lee Seong-Min, Ju Jin-Mo, Moon Jung-Hee, Choi Ji-Ho, Lee Young-Hoon
Info Link: http://www.hancinema.net/korean_movie_Troubleshooter.php
Source: DVD Rental



Plot or synopsis
Also known as "Trapped"
Falsely accused of murder, directions to kidnap, wiretapping...
An action adventure of the 24 hours of a problem-solver who has been set up and must risk his life. <hancinema>

Ex-detective and now private eye Kang Tae-Sik (Sol Kyung-Gu) enters a love motel to take pictures of a couple for an unknown client. Kang Tae-Sik is then shocked to discover a bloody slain woman on the bed. Kang Tae-Sik flees the scene when the police arrive and mistakenly believes he is the killer.

A mysterious man then calls Kang Tae-Sik and offers to clear his name if he kidnaps a high-profile lawyer embroiled in a political scandal. Even more mystifying, the caller is constantly aware of Kang Tae-Sik's every move.

Kang Tae-Sik must now use all of his muscles and the bevy of technological gadgetry at his disposal to clear himself and find the mastermind behind this intricate conspiracy. <asianmediawiki>


Troubleshooter.2010.DVDRip.x264.AC3-BAUM 12


General
Complete name : Troubleshooter.2010.DVDRip.x264.AC3-BAUM.mkv
Format : Matroska
File size : 1.46 GiB
Duration : 1h 40mn
Overall bit rate : 2 082 Kbps
Encoded date : UTC 2010-12-19 07:45:46
Writing application : mkvmerge v4.0.0 ('The Stars were mine'wink.gif built on Jun 6 2010 16:18:42
Writing library : libebml v1.0.0 + libmatroska v1.0.0


Troubleshooter.2010.DVDRip.x264.AC3-BAUM 13


Video #0
ID : 1
Format : AVC
Format/Info : Advanced Video Codec
Format profile : High@L4.1
Format settings, CABAC : Yes
Format settings, ReFrames : 3 frames
Muxing mode : Container profile=Unknown@4.1
Codec ID : V_MPEG4/ISO/AVC
Duration : 1h 40mn
Bit rate mode : Variable
Bit rate : 1 631 Kbps
Maximum bit rate : 14.0 Mbps
Width : 720 pixels
Height : 304 pixels
Display aspect ratio : 2.35:1
Frame rate : 23.976 fps
Color space : YUV
Chroma subsampling : 4:2:0
Bit depth : 8 bits
Scan type : Progressive
Bits/(Pixel*Frame) : 0.311
Stream size : 1.11 GiB (76%)
Writing library : x264 core 98 r1649 c54c47d

Troubleshooter.2010.DVDRip.x264.AC3-BAUM 14


Audio #1
ID : 2
Format : AC-3
Format/Info : Audio Coding 3
Mode extension : CM (complete main)
Codec ID : A_AC3
Duration : 1h 40mn
Bit rate mode : Constant
Bit rate : 448 Kbps
Channel(s) : 6 channels
Channel positions : Front: L C R, Side: L R, LFE
Sampling rate : 48.0 KHz
Bit depth : 16 bits
Stream size : 321 MiB (22%)






================================== 
http://thepiratebay.org/user/hiest
==================================







Screens:



